<?xml version="1.0" encoding="utf-8"?>
<!-- Svg Vector Icons : http://www.onlinewebfonts.com/icon -->
<!DOCTYPE svg PUBLIC "-//W3C//DTD SVG 1.1//EN" "http://www.w3.org/Graphics/SVG/1.1/DTD/svg11.dtd">
<svg version="1.1" xmlns="http://www.w3.org/2000/svg" xmlns:xlink="http://www.w3.org/1999/xlink" x="0px" y="0px" viewBox="0 0 256 256" enable-background="new 0 0 256 256" xml:space="preserve" width="40" height="40">
<metadata> Svg Vector Icons : http://www.onlinewebfonts.com/icon </metadata>
<g><g><g><path fill="#ffffff" d="M27.7,12.9c0.1,5.2,13.5,206.1,13.8,206.4C42,219.9,125.9,246,127,246c0.8,0,74.5-21.7,84.1-24.8c2.4-0.8,2.9-1.2,3.1-2.8c0.2-1.1,2.1-28.4,4.2-60.7c2.2-32.4,5.3-78.5,6.9-102.7c1.6-24.1,2.9-43.9,2.8-44c-0.1-0.1-45.3-0.4-100.3-0.6L27.7,10V12.9z M192.3,56.3c0.2,0.3-12.5,128-12.8,128.3c-0.7,0.8-50.4,16.1-52,16.1c-0.8,0-13-3.5-27.2-7.7l-25.7-7.6l-1.3-17c-0.7-9.4-1.3-18.5-1.3-20.2l-0.1-3.1h12.8h12.8v9.4c0,5.2,0.2,9.7,0.5,10.2c0.2,0.4,7,2.7,15,5.2l14.6,4.5l14.3-3.8c7.8-2.1,14.3-3.9,14.4-4c0.2-0.2,3.9-33.1,3.9-34.4c0-0.5-6.6-0.7-30.8-0.7H98.8v-13.1v-13.1l31.4-0.4l31.4-0.4l0.3-1.9c0.1-1,0.8-5.9,1.5-10.8c0.7-5,1.4-9.9,1.6-11l0.3-2l-50,0.2l-50,0.2l-0.4-6.3c-0.2-3.5-0.5-8.8-0.8-11.9l-0.4-5.6l64.4,0.5C163.3,56,192.3,56.3,192.3,56.3z"/></g></g></g>
</svg>